<!-- Generated by IcoMoon.io -->
<svg version="1.1" xmlns="http://www.w3.org/2000/svg" width="1351" height="1024" viewBox="0 0 1351 1024">
<title></title>
<g id="icomoon-ignore">
</g>
<path fill="#5865f2" d="M1144.508 85.758c-80.544-37.917-174.112-67.733-272.061-84.795l-6.681-0.963c-11.133 19.3-23.083 43.14-33.786 67.648l-1.92 4.933c-46.486-7.375-100.087-11.588-154.673-11.588s-108.188 4.213-160.498 12.333l5.824-0.744c-12.637-29.456-24.586-53.296-37.696-76.39l1.99 3.809c-104.745 18.184-198.371 48.064-285.877 88.87l6.923-2.899c-176.405 260.995-224.226 515.507-200.315 766.406v0c97.662 72.865 211.284 131.398 333.905 169.493l7.959 2.13c25.701-34.191 50.014-72.842 71.052-113.463l2.167-4.601c-44.644-16.821-82.635-35.341-118.609-56.883l3.308 1.836c9.67-7.014 19.128-14.24 28.267-21.254 100.096 48.191 217.639 76.35 341.758 76.35s241.663-28.158 346.59-78.435l-4.831 2.085c9.245 7.545 18.703 14.771 28.267 21.254-32.722 19.734-70.783 38.289-110.51 53.473l-5.004 1.68c23.16 45.166 47.474 83.784 74.733 120.063l-1.514-2.105c130.668-40.060 244.38-98.573 345.035-173.626l-2.958 2.109c28.055-290.962-47.927-543.137-200.847-766.725zM451.108 698.076c-66.63 0-121.677-60.467-121.677-134.854s53.134-135.386 121.465-135.386 122.952 60.998 121.783 135.386-53.665 134.854-121.571 134.854zM899.985 698.076c-66.736 0-121.571-60.467-121.571-134.854s53.134-135.386 121.571-135.386 122.633 60.998 121.465 135.386-53.559 134.854-121.465 134.854z"></path>
</svg>
