<!-- Generated by IcoMoon.io -->
<svg version="1.1" xmlns="http://www.w3.org/2000/svg" width="1045" height="1024" viewBox="0 0 1045 1024">
<title></title>
<g id="icomoon-ignore">
</g>
<path fill="#000" d="M521.109 0c-288.16 0-521.109 234.667-521.109 524.981 0 232.064 149.259 428.501 356.32 498.027 25.888 5.227 35.371-11.296 35.371-25.195 0-12.171-0.853-53.888-0.853-97.355-144.96 31.296-175.147-62.581-175.147-62.581-23.296-60.843-57.813-76.48-57.813-76.48-47.445-32.16 3.456-32.16 3.456-32.16 52.629 3.477 80.245 53.888 80.245 53.888 46.581 79.957 121.643 57.365 151.84 43.456 4.309-33.899 18.123-57.365 32.789-70.4-115.616-12.171-237.259-57.365-237.259-259.019 0-57.365 20.693-104.299 53.483-140.8-5.173-13.035-23.296-66.933 5.184-139.072 0 0 44-13.909 143.211 53.888 39.057-10.99 83.918-17.333 130.252-17.387h0.031c44 0 88.853 6.091 130.272 17.387 99.221-67.797 143.221-53.888 143.221-53.888 28.48 72.139 10.347 126.037 5.173 139.072 33.653 36.501 53.493 83.435 53.493 140.8 0 201.653-121.643 245.973-238.123 259.019 18.987 16.512 35.371 47.797 35.371 97.344 0 70.4-0.853 126.901-0.853 144.277 0 13.909 9.493 30.432 35.371 25.216 207.061-69.547 356.32-265.973 356.32-498.037 0.853-290.315-232.949-524.981-520.245-524.981z"></path>
</svg>
