<!-- Generated by IcoMoon.io -->
<svg version="1.1" xmlns="http://www.w3.org/2000/svg" width="1024" height="1024" viewBox="0 0 1024 1024">
<title></title>
<g id="icomoon-ignore">
</g>
<path fill="#4285f4" d="M962.56 522.667c0-33.28-2.987-65.28-8.533-96h-442.027v181.76h252.587c-11.093 58.453-44.373 107.947-94.293 141.227v118.187h152.32c88.747-81.92 139.947-202.24 139.947-345.173z"></path>
<path fill="#34a853" d="M512 981.333c126.72 0 232.96-41.813 310.613-113.493l-152.32-118.187c-41.813 28.16-95.147 45.227-158.293 45.227-122.027 0-225.707-82.347-262.827-193.28h-156.16v121.173c77.227 153.173 235.52 258.56 418.987 258.56z"></path>
<path fill="#fbbc05" d="M249.173 601.173c-9.387-28.16-14.933-58.027-14.933-89.173s5.547-61.013 14.933-89.173v-121.173h-156.16c-32 63.147-50.347 134.4-50.347 210.347s18.347 147.2 50.347 210.347l121.6-94.72 34.56-26.453z"></path>
<path fill="#ea4335" d="M512 229.547c69.12 0 130.56 23.893 179.627 69.973l134.4-134.4c-81.493-75.947-187.307-122.453-314.027-122.453-183.467 0-341.76 105.387-418.987 258.987l156.16 121.173c37.12-110.933 140.8-193.28 262.827-193.28z"></path>
</svg>
