<!-- Generated by IcoMoon.io -->
<svg version="1.1" xmlns="http://www.w3.org/2000/svg" width="1024" height="1024" viewBox="0 0 1024 1024">
<title></title>
<g id="icomoon-ignore">
</g>
<path fill="#e01e5a" d="M215.145 647.090c0 59.204-48.368 107.571-107.571 107.571s-107.571-48.368-107.571-107.571c0-59.204 48.368-107.571 107.571-107.571h107.571v107.571z"></path>
<path fill="#e01e5a" d="M269.338 647.090c0-59.204 48.368-107.571 107.571-107.571s107.571 48.368 107.571 107.571v269.338c0 59.204-48.368 107.571-107.571 107.571s-107.571-48.368-107.571-107.571v-269.338z"></path>
<path fill="#36c5f0" d="M376.91 215.145c-59.204 0-107.571-48.368-107.571-107.571s48.368-107.571 107.571-107.571 107.571 48.368 107.571 107.571v107.571h-107.571z"></path>
<path fill="#36c5f0" d="M376.91 269.338c59.204 0 107.571 48.368 107.571 107.571s-48.368 107.571-107.571 107.571h-269.338c-59.204 0-107.571-48.368-107.571-107.571s48.368-107.571 107.571-107.571h269.338z"></path>
<path fill="#2eb67d" d="M808.855 376.91c0-59.204 48.368-107.571 107.571-107.571s107.571 48.368 107.571 107.571-48.368 107.571-107.571 107.571h-107.571v-107.571z"></path>
<path fill="#2eb67d" d="M754.662 376.91c0 59.204-48.368 107.571-107.571 107.571s-107.571-48.368-107.571-107.571v-269.338c0-59.204 48.368-107.571 107.571-107.571s107.571 48.368 107.571 107.571v269.338z"></path>
<path fill="#ecb22e" d="M647.090 808.855c59.204 0 107.571 48.368 107.571 107.571s-48.368 107.571-107.571 107.571c-59.204 0-107.571-48.368-107.571-107.571v-107.571h107.571z"></path>
<path fill="#ecb22e" d="M647.090 754.662c-59.204 0-107.571-48.368-107.571-107.571s48.368-107.571 107.571-107.571h269.338c59.204 0 107.571 48.368 107.571 107.571s-48.368 107.571-107.571 107.571h-269.338z"></path>
</svg>
