<!-- Generated by IcoMoon.io -->
<svg version="1.1" xmlns="http://www.w3.org/2000/svg" width="1024" height="1024" viewBox="0 0 1024 1024">
<title></title>
<g id="icomoon-ignore">
</g>
<path fill="#34aadf" d="M512 1024c282.769 0 512-229.231 512-512s-229.231-512-512-512-512 229.231-512 512 229.231 512 512 512z"></path>
<path fill="#fff" d="M213.088 507.56s256-105.062 344.785-142.057c34.036-14.797 149.457-62.151 149.457-62.151s53.273-20.716 48.833 29.596c-1.481 20.718-13.318 93.225-25.156 171.653-17.758 110.983-36.995 232.323-36.995 232.323s-2.959 34.036-28.115 39.954-66.591-20.716-73.988-26.636c-5.921-4.438-110.983-71.029-149.457-103.584-10.359-8.878-22.196-26.634 1.479-47.352 53.273-48.833 116.902-109.502 155.376-147.976 17.758-17.758 35.514-59.191-38.474-8.88-105.062 72.509-208.646 140.579-208.646 140.579s-23.677 14.797-68.069 1.479c-44.394-13.316-96.186-31.074-96.186-31.074s-35.512-22.196 25.158-45.873z"></path>
</svg>
